<?xml version="1.0" encoding="utf-8"?>
<!-- Generator: Adobe Illustrator 25.0.0, SVG Export Plug-In . SVG Version: 6.00 Build 0)  -->
<svg version="1.1" id="layer_1" xmlns="http://www.w3.org/2000/svg" xmlns:xlink="http://www.w3.org/1999/xlink" x="0px" y="0px"
	 viewBox="0 0 24 24" style="enable-background:new 0 0 24 24;" xml:space="preserve">
<g>
	<g>
		<g>
			<g>
				<path d="M22.1,12c0.2,1.1,0.1,2.3-0.2,3.4c-0.3,1.1-0.8,2.2-1.4,3.2c-0.7,1-1.4,2-2.5,2.6c-1.1,0.6-2.3,0.8-3.5,0.6l0-0.2
					c0.9-0.8,1.7-1.4,2.5-2.1c0.7-0.7,1.6-1.1,2.3-1.9c0.7-0.7,1.3-1.6,1.7-2.6c0.5-0.9,0.8-2,0.9-3.1H22.1z"/>
			</g>
		</g>
		<g>
			<g>
				<path d="M6.9,20.7c-1-0.4-2-1.1-2.9-1.9c-0.8-0.8-1.6-1.8-2.1-2.8c-0.5-1.1-1.1-2.2-1-3.5c0.1-1.2,0.4-2.4,1.3-3.4l0.2,0.1
					c0.2,1.2,0.4,2.2,0.5,3.2c0.2,1,0.2,2,0.5,3c0.3,1,0.8,1.9,1.4,2.8c0.6,0.9,1.4,1.6,2.2,2.3L6.9,20.7z"/>
			</g>
		</g>
		<g>
			<g>
				<path d="M7,3.2C7.8,2.6,8.9,2,10,1.7c1.1-0.3,2.3-0.5,3.5-0.4C14.7,1.4,16,1.5,17,2.2c1,0.7,1.9,1.6,2.3,2.8l-0.1,0.1
					c-1.2-0.4-2.1-0.8-3-1.1c-0.9-0.3-1.8-0.9-2.8-1.1c-1-0.2-2-0.3-3.1-0.2C9.1,2.7,8.1,3,7.1,3.4L7,3.2z"/>
			</g>
		</g>
	</g>
</g>
</svg>
