<?xml version="1.0" encoding="utf-8"?>
<!-- Generator: Adobe Illustrator 19.1.0, SVG Export Plug-In . SVG Version: 6.00 Build 0)  -->
<svg version="1.1" id="layer_1"
	xmlns="http://www.w3.org/2000/svg"
	xmlns:xlink="http://www.w3.org/1999/xlink" viewBox="0 0 24 24" xml:space="preserve">
	<g>
		<!-- <path d="M6,10.1l5.4,5.4c0.3,0.3,0.8,0.3,1.1,0l5.4-5.4c0.3-0.3,0.3-0.8,0-1.1s-0.8-0.3-1.1,0l-4.1,4.1v-11c0-0.4-0.4-0.8-0.8-0.8
		s-0.7,0.3-0.7,0.8v11L7.1,9C7,8.9,6.8,8.8,6.6,8.8S6.2,8.9,6,9C5.6,9.2,5.6,9.8,6,10.1z"/>

		<path d="M19.7,21.9H4.3c-1.3,0-2.3-1-2.3-2.3V14c0-0.4,0.3-0.8,0.8-0.8s0.8,0.3,0.8,0.8v5.7c0,0.4,0.4,0.8,0.8,0.8h15.4
		c0.4,0,0.8-0.4,0.8-0.8V14c0-0.4,0.3-0.8,0.8-0.8S22,13.6,22,14v5.7C22,20.9,21,21.9,19.7,21.9z"/> -->
		<path/>
		<path/>
		<path/>
	</g>
</svg>
