<?xml version="1.0" encoding="utf-8"?>
<!-- Generator: Adobe Illustrator 19.1.0, SVG Export Plug-In . SVG Version: 6.00 Build 0)  -->
<svg version="1.1" id="twitter-download" xmlns="http://www.w3.org/2000/svg" xmlns:xlink="http://www.w3.org/1999/xlink" x="0px" y="0px"
	 viewBox="0 0 24 24" style="enable-background:new 0 0 24 24;" xml:space="preserve">
<g>
	<path d="M6.2,10.3l5.2,5.2c0.3,0.3,0.8,0.3,1.1,0l5.2-5.2c0.3-0.3,0.3-0.8,0-1.1s-0.8-0.3-1.1,0l-3.9,3.9V2.5
		c0-0.4-0.4-0.8-0.8-0.8S11.2,2,11.2,2.5v10.6L7.3,9.2C7.2,9.1,7,9,6.8,9S6.4,9.1,6.2,9.2C5.9,9.5,5.9,10,6.2,10.3z"/>
	<path d="M19.7,21.9H4.3c-1.3,0-2.3-1-2.3-2.3V14c0-0.4,0.3-0.8,0.8-0.8s0.8,0.3,0.8,0.8v5.7c0,0.4,0.4,0.8,0.8,0.8h15.4
		c0.4,0,0.8-0.4,0.8-0.8V14c0-0.4,0.3-0.8,0.8-0.8S22,13.6,22,14v5.7C22,20.9,21,21.9,19.7,21.9z"/>
</g>
</svg>
